static_01
version=1
nRows=13
nColumns=46
inDegrees=yes
endheader
time	ground_force3_vx	ground_force3_vy	ground_force3_vz	ground_force3_px	ground_force3_py	ground_force3_pz	ground_torque3_x	ground_torque3_y	ground_torque3_z	ground_force5_vx	ground_force5_vy	ground_force5_vz	ground_force5_px	ground_force5_py	ground_force5_pz	ground_torque5_x	ground_torque5_y	ground_torque5_z	ground_force4_vx	ground_force4_vy	ground_force4_vz	ground_force4_px	ground_force4_py	ground_force4_pz	ground_torque4_x	ground_torque4_y	ground_torque4_z	ground_force1_vx	ground_force1_vy	ground_force1_vz	ground_force1_px	ground_force1_py	ground_force1_pz	ground_torque1_x	ground_torque1_y	ground_torque1_z	ground_force2_vx	ground_force2_vy	ground_force2_vz	ground_force2_px	ground_force2_py	ground_force2_pz	ground_torque2_x	ground_torque2_y	ground_torque2_z
1.203000	-0.000000	-0.000000	0.000000	0.200000	0.000000	-0.300000	0.000000	0.000000	-0.000000	1.681647	346.762512	21.619425	0.220919	0.000000	-1.320201	0.000051	-0.291038	0.000004	-2.271647	318.143005	-22.752903	0.226634	0.000000	-1.045866	0.000019	0.337483	0.000000	-0.000000	-0.000000	0.000000	0.200000	0.000000	0.904000	0.000000	0.000000	-0.000000	-0.000000	-0.000000	0.000000	0.400000	0.000000	0.302000	0.000000	0.000000	-0.000000	
1.204000	-0.000000	-0.000000	0.000000	0.200000	0.000000	-0.300000	0.000000	0.000000	-0.000000	2.324461	348.358643	21.941509	0.221190	0.000000	-1.322144	0.000040	0.015641	0.000003	-2.925083	319.106750	-22.592369	0.225719	0.000000	-1.046066	-0.000007	0.128340	0.000002	-0.000000	-0.000000	0.000000	0.200000	0.000000	0.904000	0.000000	0.000000	-0.000000	-0.000000	-0.000000	0.000000	0.400000	0.000000	0.302000	0.000000	0.000000	-0.000000	
1.205000	-0.000000	-0.000000	0.000000	0.200000	0.000000	-0.300000	0.000000	0.000000	-0.000000	1.842860	348.037415	21.619764	0.221042	0.000000	-1.320135	0.000027	-0.257640	0.000001	-2.921996	318.146362	-22.428772	0.225402	0.000000	-1.048032	0.000007	0.348466	0.000007	-0.000000	-0.000000	0.000000	0.200000	0.000000	0.904000	0.000000	0.000000	-0.000000	-0.000000	-0.000000	0.000000	0.400000	0.000000	0.302000	0.000000	0.000000	-0.000000	
1.206000	-0.000000	-0.000000	0.000000	0.200000	0.000000	-0.300000	0.000000	0.000000	-0.000000	2.485674	347.078735	21.940832	0.221085	0.000000	-1.320139	-0.000016	-0.057114	0.000006	-2.112149	317.822449	-22.753922	0.226368	0.000000	-1.045829	0.000024	0.172852	0.000003	-0.000000	-0.000000	0.000000	0.200000	0.000000	0.904000	0.000000	0.000000	-0.000000	-0.000000	-0.000000	0.000000	0.400000	0.000000	0.302000	0.000000	0.000000	-0.000000	
1.207000	-0.000000	-0.000000	0.000000	0.200000	0.000000	-0.300000	0.000000	0.000000	-0.000000	1.520944	348.673187	22.101366	0.220783	0.000000	-1.320013	0.000054	-0.378727	0.000003	-2.921996	318.144348	-22.106686	0.226302	0.000000	-1.046636	0.000008	0.356219	0.000002	-0.000000	-0.000000	0.000000	0.200000	0.000000	0.904000	0.000000	0.000000	-0.000000	-0.000000	-0.000000	0.000000	0.400000	0.000000	0.302000	0.000000	0.000000	-0.000000	
1.208000	-0.000000	-0.000000	0.000000	0.200000	0.000000	-0.300000	0.000000	0.000000	-0.000000	1.679610	348.994415	21.940832	0.220893	0.000000	-1.322093	0.000038	-0.043177	0.000005	-2.757865	317.825134	-22.430813	0.226053	0.000000	-1.046221	0.000005	0.354087	0.000003	-0.000000	-0.000000	0.000000	0.200000	0.000000	0.904000	0.000000	0.000000	-0.000000	-0.000000	-0.000000	0.000000	0.400000	0.000000	0.302000	0.000000	0.000000	-0.000000	
1.209000	-0.000000	-0.000000	0.000000	0.200000	0.000000	-0.300000	0.000000	0.000000	-0.000000	1.519924	348.995056	21.780298	0.221053	0.000000	-1.321712	0.000040	-0.213412	0.000003	-2.274736	318.464905	-22.593388	0.226058	0.000000	-1.046361	0.000015	0.134417	0.000004	-0.000000	-0.000000	0.000000	0.200000	0.000000	0.904000	0.000000	0.000000	-0.000000	-0.000000	-0.000000	0.000000	0.400000	0.000000	0.302000	0.000000	0.000000	-0.000000	
1.210000	-0.000000	-0.000000	0.000000	0.200000	0.000000	-0.300000	0.000000	0.000000	-0.000000	1.681647	348.035095	21.940832	0.220844	0.000000	-1.320491	0.000037	-0.296575	0.000007	-2.432690	320.066711	-22.109745	0.225597	0.000000	-1.046165	0.000027	0.315117	0.000005	-0.000000	-0.000000	0.000000	0.200000	0.000000	0.904000	0.000000	0.000000	-0.000000	-0.000000	-0.000000	0.000000	0.400000	0.000000	0.302000	0.000000	0.000000	-0.000000	
1.211000	-0.000000	-0.000000	0.000000	0.200000	0.000000	-0.300000	0.000000	0.000000	-0.000000	2.002035	348.676514	22.101028	0.221407	0.000000	-1.322109	0.000056	-0.121573	0.000007	-1.951107	319.105377	-21.949211	0.225837	0.000000	-1.046382	0.000032	0.066652	0.000006	-0.000000	-0.000000	0.000000	0.200000	0.000000	0.904000	0.000000	0.000000	-0.000000	-0.000000	-0.000000	0.000000	0.400000	0.000000	0.302000	0.000000	0.000000	-0.000000	
1.212000	-0.000000	-0.000000	0.000000	0.200000	0.000000	-0.300000	0.000000	0.000000	-0.000000	2.807590	347.400940	21.459906	0.221016	0.000000	-1.320611	0.000026	0.147205	0.000000	-2.760954	316.863770	-22.591347	0.226052	0.000000	-1.045652	0.000024	0.246951	0.000001	-0.000000	-0.000000	0.000000	0.200000	0.000000	0.904000	0.000000	0.000000	-0.000000	-0.000000	-0.000000	0.000000	0.400000	0.000000	0.302000	0.000000	0.000000	-0.000000	
1.213000	-0.000000	-0.000000	0.000000	0.200000	0.000000	-0.300000	0.000000	0.000000	-0.000000	1.519415	348.678864	21.940832	0.221163	0.000000	-1.321710	-0.000001	-0.174182	0.000001	-2.435779	318.788513	-22.270279	0.225729	0.000000	-1.045528	0.000018	0.210866	0.000003	-0.000000	-0.000000	0.000000	0.200000	0.000000	0.904000	0.000000	0.000000	-0.000000	-0.000000	-0.000000	0.000000	0.400000	0.000000	0.302000	0.000000	0.000000	-0.000000	
1.214000	-0.000000	-0.000000	0.000000	0.200000	0.000000	-0.300000	0.000000	0.000000	-0.000000	2.324970	348.358643	21.780298	0.221740	0.000000	-1.322193	0.000003	-0.115190	0.000004	-2.274736	320.070770	-22.271301	0.225232	0.000000	-1.045361	0.000025	0.105485	0.000002	-0.000000	-0.000000	0.000000	0.200000	0.000000	0.904000	0.000000	0.000000	-0.000000	-0.000000	-0.000000	0.000000	0.400000	0.000000	0.302000	0.000000	0.000000	-0.000000	
1.215000	-0.000000	-0.000000	0.000000	0.200000	0.000000	-0.300000	0.000000	0.000000	-0.000000	1.681137	348.354950	21.298018	0.220925	0.000000	-1.321408	0.000031	-0.222227	0.000003	-2.598366	317.826477	-21.950233	0.225830	0.000000	-1.047012	-0.000002	0.122345	0.000004	-0.000000	-0.000000	0.000000	0.200000	0.000000	0.904000	0.000000	0.000000	-0.000000	-0.000000	-0.000000	0.000000	0.400000	0.000000	0.302000	0.000000	0.000000	-0.000000	
